<?xml version="1.0" standalone="no"?>
<!DOCTYPE svg PUBLIC "-//W3C//DTD SVG 20010904//EN"
 "http://www.w3.org/TR/2001/REC-SVG-20010904/DTD/svg10.dtd">
<svg version="1.0" xmlns="http://www.w3.org/2000/svg"
 width="1366.000000pt" height="1366.000000pt" viewBox="0 0 1366.000000 1366.000000"
 preserveAspectRatio="xMidYMid meet">
<metadata>
Created by potrace 1.14, written by Peter Selinger 2001-2017
</metadata>
<g transform="translate(0.000000,1366.000000) scale(0.100000,-0.100000)"
fill="#000000" stroke="none">
<path d="M5565 8524 c-163 -18 -371 -74 -512 -139 -273 -126 -522 -376 -658
-660 -136 -284 -193 -598 -182 -999 18 -644 244 -1114 670 -1399 272 -182 645
-268 1031 -238 401 31 705 150 961 376 l50 44 -77 155 -78 156 -94 -74 c-277
-216 -560 -316 -896 -316 -623 0 -1015 348 -1131 1005 -20 112 -23 164 -23
375 0 212 3 263 23 375 70 396 240 677 511 843 251 155 622 200 965 117 203
-48 383 -140 575 -294 35 -28 66 -51 70 -51 4 0 39 68 78 152 l72 151 -22 25
c-77 82 -270 209 -407 267 -220 93 -384 125 -671 129 -118 2 -233 2 -255 0z"/>
<path d="M340 6805 l0 -1685 1065 0 1065 0 0 165 0 165 -870 0 -870 0 0 610 0
610 825 0 825 0 0 165 0 165 -825 0 -825 0 0 580 0 580 870 0 870 0 0 165 0
165 -1065 0 -1065 0 0 -1685z"/>
<path d="M3110 6805 l0 -1685 200 0 200 0 0 1685 0 1685 -200 0 -200 0 0
-1685z"/>
<path d="M7560 6805 l0 -1685 195 0 195 0 0 775 0 775 1005 0 1005 0 0 -775 0
-775 200 0 200 0 0 1685 0 1685 -200 0 -200 0 0 -745 0 -745 -1005 0 -1005 0
0 745 0 745 -195 0 -195 0 0 -1685z"/>
<path d="M11180 6805 l0 -1685 1065 0 1065 0 0 165 0 165 -870 0 -870 0 0 610
0 610 825 0 825 0 0 165 0 165 -825 0 -825 0 0 580 0 580 870 0 870 0 0 165 0
165 -1065 0 -1065 0 0 -1685z"/>
</g>
</svg>
