<?xml version="1.0" encoding="utf-8"?>
<!-- Generator: Adobe Illustrator 26.3.1, SVG Export Plug-In . SVG Version: 6.00 Build 0)  -->
<svg version="1.1" id="Ebene_1" xmlns="http://www.w3.org/2000/svg" xmlns:xlink="http://www.w3.org/1999/xlink" x="0px" y="0px"
	 width="195.7px" height="40.6px" viewBox="0 0 195.7 40.6" style="enable-background:new 0 0 195.7 40.6;" xml:space="preserve">
<style type="text/css">
	.st0{fill:#FFFFFF;}
</style>
<g>
	<path class="st0" d="M15.7,8.2H5.5v6.5h9v4.2h-9v6.9h10.1v4.3H0.2V3.9h15.5V8.2z"/>
	<path class="st0" d="M29.6,9c5.3,0,8.8,2.7,10,7.3h-5.8c-0.6-1.8-2-2.9-4.2-2.9c-3,0-5,2.2-5,6.2s2,6.2,5,6.2c2.2,0,3.6-1,4.2-2.8
		h5.8c-1.1,4.4-4.7,7.3-10,7.3c-6.1,0-10.5-4.2-10.5-10.7S23.5,9,29.6,9z"/>
	<path class="st0" d="M43.5,2.4h5.4v27.7h-5.4V2.4z"/>
	<path class="st0" d="M53.6,3.8c0-1.7,1.4-3.1,3.3-3.1c1.9,0,3.3,1.3,3.3,3.1s-1.4,3.1-3.3,3.1C55,6.9,53.6,5.5,53.6,3.8z M54.2,9.3
		h5.4V30h-5.4V9.3z"/>
	<path class="st0" d="M77.2,9c5.4,0,9.7,4.2,9.7,10.6s-4.2,10.8-9.7,10.8c-3.3,0-5.7-1.6-7-3.3v12.8h-5.4V9.3h5.4v3
		C71.4,10.6,73.9,9,77.2,9z M75.8,13.6c-2.9,0-5.6,2.2-5.6,6.1s2.7,6.1,5.6,6.1s5.6-2.2,5.6-6.2S78.7,13.6,75.8,13.6z"/>
	<path class="st0" d="M98.9,30.4c-5.3,0-9-3-9.3-6.9H95c0.2,1.6,1.7,2.8,3.8,2.8c2.1,0,3.3-0.9,3.3-2.1c0-3.7-12-1.3-12-8.9
		c0-3.4,3.1-6.2,8.4-6.2c5.1,0,8.2,2.7,8.5,6.8h-5.1c-0.2-1.6-1.5-2.7-3.6-2.7c-2,0-3,0.8-3,2c0,3.8,11.7,1.4,11.9,9
		C107.2,27.7,104,30.4,98.9,30.4z"/>
	<path class="st0" d="M120.8,30.4c-6.2,0-10.6-4.2-10.6-10.7S114.6,9,120.8,9c6.1,0,10.4,4.1,10.4,10.3c0,0.7,0,1.3-0.2,2h-15.5
		c0.3,3.1,2.4,4.8,5.1,4.8c2.3,0,3.6-1.1,4.2-2.5h5.8C129.6,27.4,126.1,30.4,120.8,30.4z M115.7,17.7h10.1c-0.1-2.7-2.3-4.5-5-4.5
		C118.1,13.3,116.1,14.9,115.7,17.7z"/>
	<path class="st0" d="M154.5,21.3l-5.2,8.8h-6l8.4-13.2L143.2,4h6.2l5.8,8.8l5.2-8.8h6L158,17.1l8.5,13h-6.2L154.5,21.3z"/>
	<g>
		<path class="st0" d="M179.6,25h-12.7v-4l11.9-17h5.9v16.6h3.2V25h-3.2v5.2h-5.1V25z M179.9,20.5V9.4l-7.4,11.1H179.9z"/>
	</g>
</g>
</svg>
